<svg width="393" height="82" viewBox="0 0 393 82" fill="none" xmlns="http://www.w3.org/2000/svg">
<path d="M47 20.4C46.9 20.5 46.7 20.5 46.5 20.5C45.5 20.5 43.7 18.9 43.7 18C43.7 17.9 43.7 17.7 43.9 17.6C46.2 15.8 51.6 10.5 51.5 7.3C51.1 7.3 50.8 7.3 50.4 7.3C40.3 7.3 20.7 20 20.7 28.7C20.7 29.1 20.8 29.4 20.8 29.8C21.1 31.2 23.9 31.6 27.2 31.6C31.4 31.6 36.3 30.9 37.8 30.7C37.8 30.7 37.9 30.6 38 30.6C39.2 30.6 40.8 32.3 40.8 33.1C40.8 33.3 40.8 33.5 40.6 33.6C32.5 38.4 3.4 57.7 3.4 69.1C3.4 69.7 3.4 70.2 3.6 70.8C3.9 71.9 5.1 72.3 6.7 72.3C12.6 72.3 24.5 66.8 26.3 65.9C35.8 61.1 47.3 53.3 60.2 42.2C60.6 41.8 61.6 42.2 62.5 42.9C63.4 43.7 63.8 44.6 63.3 45C50.4 56.1 38.8 63.9 29.3 68.8C21 73 14.2 75 9.3 75C7.5 75 5.9 74.7 4.7 74.2C1.5 72.7 0 70.4 0 67.5C0 66.5 0.1 65.4 0.5 64.3C3.9 53.6 21.8 40.8 31.4 34.6C31.2 34.6 31 34.6 30.7 34.6C26 34.6 18.4 33.7 17.4 28.2C17.3 27.7 17.2 27.3 17.2 26.8C17.2 16.7 38.1 4.4 48.2 4.2C48.3 4.2 48.3 4.2 48.3 4.2C51 4.2 54.2 5.6 54.9 8.4C55 8.7 55 9 55 9.3C55 13.1 49.8 18.3 47 20.4ZM62.1938 36.2C62.2938 36 62.4938 35.8 62.7938 35.8C63.7938 35.8 65.4938 37.2 65.4938 38.2C65.4938 38.3 65.4938 38.4 65.3938 38.5C65.3938 38.5 61.9938 47.4 61.9938 52.9C61.9938 53.6 61.9938 54.2 62.0938 54.7C64.8938 53.6 69.1938 48.4 71.4938 45.2C72.8938 43.1 74.1938 41.1 74.8938 39.5C74.8938 39.3 75.4938 36.4 75.6938 36.5C75.7938 36.3 75.9938 36.1 76.2938 36.1C77.2938 36.1 79.1938 37.5 78.9938 39.2C78.4938 40.7 78.2938 41 78.2938 42C78.2938 42.3 78.2938 42.6 78.2938 43C78.5938 43.2 79.1938 43.3 79.7938 43.3C82.0938 43.3 85.9938 42.3 87.0938 41.9C87.1938 41.9 87.2938 41.9 87.3938 41.9C88.5938 41.9 89.9938 43.4 89.9938 44.3C89.9938 44.6 89.8938 44.8 89.5938 44.9C87.1938 45.7 84.6938 46.2 82.4938 46.2C80.2938 46.2 78.2938 45.7 76.7938 44.3C74.3938 48.4 67.4938 57.8 63.3938 57.9C60.7938 57.9 59.0938 55.2 58.7938 52.9C58.6938 52.4 58.6938 51.8 58.6938 51.3C58.6938 45.3 62.1938 36.3 62.1938 36.2ZM100.756 39.8C100.456 40.6 98.7563 39.7 98.1563 39.1C94.0563 40.3 88.5563 44.5 88.5563 48.6C88.5563 49 88.6563 49.4 88.7563 49.7C93.0563 49.3 101.556 39.9 101.556 39.9C101.756 39.6 102.056 39.5 102.356 39.5C103.556 39.5 105.056 41.4 105.056 42.1C105.056 42.2 104.956 42.3 104.956 42.3C104.756 43.7 104.656 44.9 104.656 46C104.656 47.1 104.756 48 104.956 48.7C105.056 49.1 105.456 49.3 106.056 49.3C109.456 49.3 119.256 43.1 120.656 42.2C120.756 42.1 120.956 42.1 121.056 42.1C122.156 42.1 123.756 43.7 123.756 44.6C123.756 44.8 123.656 44.9 123.556 45C119.256 47.7 112.956 52.2 108.156 52.2C107.656 52.2 107.156 52.2 106.656 52.1C103.656 51.3 101.756 49.3 101.256 46.1C98.1563 49.1 93.5563 52.8 90.5563 52.8C90.3563 52.8 90.2563 52.8 90.0563 52.7C87.9563 52.5 85.9563 50.7 85.3563 48.4C85.1562 47.9 85.1562 47.3 85.1562 46.8C85.1562 41.8 91.2563 37.3 95.4563 36.1C95.9563 36 96.4563 35.9 96.9563 35.9C98.2563 35.9 99.3563 36.4 100.256 37.5C100.856 38.2 101.056 39 100.756 39.8ZM183.459 10.2C182.959 9.6 181.859 9.3 180.559 9.3C176.059 9.3 168.459 12.6 168.459 19.2C168.459 22.3 170.259 26.2 175.059 30.8C175.959 31.7 176.259 32.7 175.459 32.8C162.759 35.8 156.059 42 153.359 48.5C152.559 50.3 152.059 53.2 152.059 56.1C152.059 61.3 153.759 66.8 158.459 66.8C164.459 66.8 180.259 55.6 180.259 49.1C180.259 48.7 180.159 48.2 179.959 47.9C179.959 47.7 179.759 47.6 179.459 47.6C177.159 47.6 168.859 51.6 167.459 52.3C167.259 52.4 167.159 52.4 167.059 52.4C165.959 52.4 164.159 50.8 164.159 49.9C164.159 49.7 164.259 49.5 164.459 49.4C169.659 47 181.759 41.6 190.159 41.6C192.659 41.6 194.859 42 196.359 43.2C197.559 44.2 197.959 44.7 197.959 45C197.959 45.2 197.759 45.2 197.459 45.2C196.659 45.2 195.359 44.9 194.759 44.7C194.159 44.6 193.459 44.5 192.659 44.5C189.459 44.5 184.959 45.7 181.759 46.7C182.459 47.3 182.959 48.1 183.359 49C183.559 49.6 183.659 50.2 183.659 50.8C183.659 58.7 167.259 69.9 160.759 69.9C152.659 69.9 148.559 61.5 148.559 53.6C148.559 50.9 148.959 48.3 149.859 46.1C152.659 39.6 159.259 33.3 171.559 30.1C166.859 25.2 165.059 20.8 165.059 17.2C165.059 10.4 171.759 6.4 177.859 6.4C183.059 6.4 187.759 9.2 187.759 15.4C187.759 17 187.359 18.8 186.659 20.9C187.859 20.5 189.159 20.1 190.559 19.8C190.559 19.8 190.659 19.8 190.759 19.8C191.959 19.8 193.659 21.5 193.659 22.3C193.659 22.6 193.459 22.8 193.159 22.8C187.259 24 182.459 27.8 182.459 27.8C182.359 27.9 182.159 28 181.959 28C180.859 28 179.059 26.4 179.059 25.5C179.059 25.3 179.159 25.2 179.259 25C181.659 23.2 184.259 17.6 184.259 13.5C184.259 12.2 184.059 11.1 183.459 10.2ZM218.386 36.3C218.486 36.3 218.486 36.3 218.586 36.3C219.786 36.3 221.486 37.9 221.486 38.8C221.486 39 221.286 39.2 220.986 39.3C220.086 39.4 219.186 39.5 218.386 39.5C216.786 39.5 215.286 39.1 213.986 38.1C212.886 37.2 212.386 36.2 212.386 35C212.386 34.8 212.386 34.6 212.386 34.4C213.586 28 229.286 16.2 238.086 16.2C239.086 16.2 239.986 16.4 240.786 16.7C241.886 17.1 242.886 17.9 243.786 18.7C245.886 21 246.786 23.9 246.786 27.1C246.786 32.3 244.486 38.4 241.586 44.4C245.086 39.9 250.386 33.9 256.286 33.9C257.986 33.9 259.786 34.4 261.686 35.7C264.586 37.7 267.086 41.3 269.086 46.9C276.986 42.8 290.886 5.6 298.786 0.999995C299.286 0.699999 299.686 0.599994 300.086 0.599994C301.186 0.599994 302.086 1.3 302.886 2.8C303.186 3.2 303.286 3.79999 303.286 4.7C303.286 11.2 297.186 29.5 295.486 35C291.886 47 287.186 60.8 285.086 73C284.986 73.6 284.486 77.2 284.486 78.9C284.486 79.4 284.586 79.7 284.686 79.8C285.386 80.7 285.386 81.4 284.686 81.5C284.586 81.5 284.486 81.5 284.386 81.5C282.186 81.5 281.086 78 281.086 76.1C281.086 69.8 285.186 55.6 287.886 46.6C291.786 33.6 297.286 18.4 299.686 5.9C292.686 14.4 278.086 47.7 271.586 50C271.086 50.1 270.586 50.2 270.086 50.2C268.286 50.2 266.886 48.9 265.886 46C264.286 41.4 262.586 38.7 260.986 37.6C260.186 37.1 259.286 36.8 258.386 36.8C253.786 36.8 248.186 43 245.986 45.7C237.486 56.1 230.386 71.9 230.386 72.1C230.386 72.1 229.986 72.1 229.486 72.1C228.086 72.1 225.486 71.7 225.486 68.5C225.486 68 225.486 67.4 225.686 66.7C227.686 57.6 243.686 37.3 243.686 25.3C243.686 23 243.086 21 241.686 19.5C241.186 19.1 240.586 19 239.886 19C233.186 19 217.086 31 215.886 36.5C216.586 36.5 217.386 36.5 218.386 36.3ZM316.772 39.8C316.472 40.6 314.772 39.7 314.172 39.1C310.072 40.3 304.572 44.5 304.572 48.6C304.572 49 304.672 49.4 304.772 49.7C309.072 49.3 317.572 39.9 317.572 39.9C317.772 39.6 318.072 39.5 318.372 39.5C319.572 39.5 321.072 41.4 321.072 42.1C321.072 42.2 320.972 42.3 320.972 42.3C320.772 43.7 320.672 44.9 320.672 46C320.672 47.1 320.772 48 320.972 48.7C321.072 49.1 321.472 49.3 322.072 49.3C325.472 49.3 335.272 43.1 336.672 42.2C336.772 42.1 336.972 42.1 337.072 42.1C338.172 42.1 339.772 43.7 339.772 44.6C339.772 44.8 339.672 44.9 339.572 45C335.272 47.7 328.972 52.2 324.172 52.2C323.672 52.2 323.172 52.2 322.672 52.1C319.672 51.3 317.772 49.3 317.272 46.1C314.172 49.1 309.572 52.8 306.572 52.8C306.372 52.8 306.272 52.8 306.072 52.7C303.972 52.5 301.972 50.7 301.372 48.4C301.172 47.9 301.172 47.3 301.172 46.8C301.172 41.8 307.272 37.3 311.472 36.1C311.972 36 312.472 35.9 312.972 35.9C314.272 35.9 315.372 36.4 316.272 37.5C316.872 38.2 317.072 39 316.772 39.8ZM360.861 42.4C361.761 41.5 364.461 44.4 363.561 45.2C359.361 49.3 345.361 66.9 340.561 65.3C339.561 64.9 338.561 64.1 337.961 63.2C335.561 59.6 342.961 48.3 345.061 44.1C341.861 45.1 338.461 45.5 335.761 43.7C330.961 40.4 333.961 33.2 337.661 32.1C339.861 31.5 342.461 33.7 342.861 35.8C343.161 37 342.861 38.9 341.661 41.3C342.861 41 345.261 39.9 346.261 39.9C347.861 40 348.861 40.9 349.461 42.4C350.461 45.1 341.561 57.7 340.761 62.3C345.561 60 356.261 47 360.861 42.4ZM336.661 41.8C338.361 39.1 339.161 37.1 339.361 35.7C338.761 36.2 338.061 37.2 337.461 38.5C337.361 38.6 336.361 41.5 336.661 41.8ZM375.875 3.3C375.975 3.1 376.175 3 376.475 3C377.575 3 379.675 4.7 379.375 5.69999C379.275 5.8 367.075 35.7 361.975 51.3C364.775 47.2 372.075 35.3 375.375 33.7C375.775 33.5 376.075 33.4 376.375 33.4C378.075 33.4 379.675 35.2 379.675 36C379.675 36.2 379.575 36.3 379.475 36.3C378.975 36.5 378.975 35.8 377.075 37.5C375.275 39.2 372.875 42.6 370.475 46.2C370.475 46.4 370.375 46.7 370.375 47.1C370.375 48.5 370.575 50.9 371.675 51.6C372.075 51.9 372.675 52.1 373.275 52.1C377.975 52.1 387.375 44.6 389.575 42.1C389.675 42 389.875 41.9 389.975 41.9C390.875 41.9 392.475 43.7 392.475 44.8C392.475 45 392.475 45.1 392.375 45.2C388.875 49.1 381.675 54.9 375.575 54.9C373.875 54.9 372.375 54.5 370.975 53.5C369.575 52.5 368.575 51.2 367.975 49.9C364.975 54.4 360.775 61.2 359.175 61.2C357.175 61.2 356.175 60.1 356.175 58.3C356.175 52.1 375.875 3.5 375.875 3.3Z" fill="black"/>
</svg>
