<?xml version="1.0" encoding="UTF-8"?>
<svg xmlns="http://www.w3.org/2000/svg" xmlns:xlink="http://www.w3.org/1999/xlink" width="px" height="px" viewBox="0 0 196 41" version="1.1">
<g id="surface1">
<path style=" stroke:none;fill-rule:nonzero;fill:rgb(0%,0%,0%);fill-opacity:1;" d="M 23.441406 10.199219 C 23.390625 10.25 23.289062 10.25 23.191406 10.25 C 22.691406 10.25 21.792969 9.449219 21.792969 9 C 21.792969 8.949219 21.792969 8.851562 21.894531 8.800781 C 23.042969 7.898438 25.734375 5.25 25.683594 3.648438 C 25.484375 3.648438 25.335938 3.648438 25.136719 3.648438 C 20.097656 3.648438 10.324219 10 10.324219 14.351562 C 10.324219 14.550781 10.375 14.699219 10.375 14.898438 C 10.523438 15.601562 11.917969 15.800781 13.566406 15.800781 C 15.660156 15.800781 18.105469 15.449219 18.851562 15.351562 C 18.851562 15.351562 18.902344 15.300781 18.953125 15.300781 C 19.550781 15.300781 20.347656 16.148438 20.347656 16.550781 C 20.347656 16.648438 20.347656 16.75 20.25 16.800781 C 16.207031 19.199219 1.695312 28.851562 1.695312 34.550781 C 1.695312 34.851562 1.695312 35.101562 1.796875 35.398438 C 1.945312 35.949219 2.542969 36.148438 3.339844 36.148438 C 6.285156 36.148438 12.21875 33.398438 13.117188 32.949219 C 17.855469 30.550781 23.589844 26.648438 30.023438 21.101562 C 30.222656 20.898438 30.722656 21.101562 31.171875 21.449219 C 31.621094 21.851562 31.820312 22.300781 31.570312 22.5 C 25.136719 28.050781 19.351562 31.949219 14.613281 34.398438 C 10.472656 36.5 7.082031 37.5 4.636719 37.5 C 3.742188 37.5 2.941406 37.351562 2.34375 37.101562 C 0.75 36.351562 0 35.199219 0 33.75 C 0 33.25 0.0507812 32.699219 0.25 32.148438 C 1.945312 26.800781 10.871094 20.398438 15.660156 17.300781 C 15.558594 17.300781 15.460938 17.300781 15.3125 17.300781 C 12.96875 17.300781 9.175781 16.851562 8.679688 14.101562 C 8.628906 13.851562 8.578125 13.648438 8.578125 13.398438 C 8.578125 8.351562 19 2.199219 24.039062 2.101562 C 24.089844 2.101562 24.089844 2.101562 24.089844 2.101562 C 25.433594 2.101562 27.03125 2.800781 27.378906 4.199219 C 27.429688 4.351562 27.429688 4.5 27.429688 4.648438 C 27.429688 6.550781 24.835938 9.148438 23.441406 10.199219 Z M 31.019531 18.101562 C 31.066406 18 31.167969 17.898438 31.316406 17.898438 C 31.816406 17.898438 32.664062 18.601562 32.664062 19.101562 C 32.664062 19.148438 32.664062 19.199219 32.613281 19.25 C 32.613281 19.25 30.917969 23.699219 30.917969 26.449219 C 30.917969 26.800781 30.917969 27.101562 30.96875 27.351562 C 32.363281 26.800781 34.507812 24.199219 35.65625 22.601562 C 36.355469 21.550781 37.003906 20.550781 37.351562 19.75 C 37.351562 19.648438 37.652344 18.199219 37.75 18.25 C 37.800781 18.148438 37.898438 18.050781 38.050781 18.050781 C 38.546875 18.050781 39.496094 18.75 39.394531 19.601562 C 39.148438 20.351562 39.046875 20.5 39.046875 21 C 39.046875 21.148438 39.046875 21.300781 39.046875 21.5 C 39.195312 21.601562 39.496094 21.648438 39.796875 21.648438 C 40.941406 21.648438 42.886719 21.148438 43.4375 20.949219 C 43.484375 20.949219 43.535156 20.949219 43.585938 20.949219 C 44.183594 20.949219 44.882812 21.699219 44.882812 22.148438 C 44.882812 22.300781 44.832031 22.398438 44.683594 22.449219 C 43.484375 22.851562 42.238281 23.101562 41.140625 23.101562 C 40.042969 23.101562 39.046875 22.851562 38.300781 22.148438 C 37.101562 24.199219 33.660156 28.898438 31.617188 28.949219 C 30.320312 28.949219 29.472656 27.601562 29.320312 26.449219 C 29.273438 26.199219 29.273438 25.898438 29.273438 25.648438 C 29.273438 22.648438 31.019531 18.148438 31.019531 18.101562 Z M 50.25 19.898438 C 50.101562 20.300781 49.253906 19.851562 48.953125 19.550781 C 46.910156 20.148438 44.164062 22.25 44.164062 24.300781 C 44.164062 24.5 44.214844 24.699219 44.265625 24.851562 C 46.410156 24.648438 50.648438 19.949219 50.648438 19.949219 C 50.75 19.800781 50.898438 19.75 51.046875 19.75 C 51.644531 19.75 52.394531 20.699219 52.394531 21.050781 C 52.394531 21.101562 52.34375 21.148438 52.34375 21.148438 C 52.246094 21.851562 52.195312 22.449219 52.195312 23 C 52.195312 23.550781 52.246094 24 52.34375 24.351562 C 52.394531 24.550781 52.59375 24.648438 52.894531 24.648438 C 54.589844 24.648438 59.476562 21.550781 60.175781 21.101562 C 60.222656 21.050781 60.324219 21.050781 60.375 21.050781 C 60.921875 21.050781 61.71875 21.851562 61.71875 22.300781 C 61.71875 22.398438 61.671875 22.449219 61.621094 22.5 C 59.476562 23.851562 56.335938 26.101562 53.941406 26.101562 C 53.691406 26.101562 53.441406 26.101562 53.191406 26.050781 C 51.695312 25.648438 50.75 24.648438 50.5 23.050781 C 48.953125 24.550781 46.660156 26.398438 45.164062 26.398438 C 45.0625 26.398438 45.011719 26.398438 44.914062 26.351562 C 43.867188 26.25 42.867188 25.351562 42.570312 24.199219 C 42.46875 23.949219 42.46875 23.648438 42.46875 23.398438 C 42.46875 20.898438 45.511719 18.648438 47.605469 18.050781 C 47.855469 18 48.105469 17.949219 48.355469 17.949219 C 49.003906 17.949219 49.550781 18.199219 50 18.75 C 50.300781 19.101562 50.398438 19.5 50.25 19.898438 Z M 91.496094 5.101562 C 91.246094 4.800781 90.699219 4.648438 90.050781 4.648438 C 87.804688 4.648438 84.015625 6.300781 84.015625 9.601562 C 84.015625 11.148438 84.914062 13.101562 87.308594 15.398438 C 87.753906 15.851562 87.90625 16.351562 87.507812 16.398438 C 81.171875 17.898438 77.832031 21 76.484375 24.25 C 76.085938 25.148438 75.835938 26.601562 75.835938 28.050781 C 75.835938 30.648438 76.683594 33.398438 79.027344 33.398438 C 82.019531 33.398438 89.898438 27.800781 89.898438 24.550781 C 89.898438 24.351562 89.851562 24.101562 89.75 23.949219 C 89.75 23.851562 89.652344 23.800781 89.5 23.800781 C 88.355469 23.800781 84.214844 25.800781 83.515625 26.148438 C 83.417969 26.199219 83.367188 26.199219 83.316406 26.199219 C 82.769531 26.199219 81.871094 25.398438 81.871094 24.949219 C 81.871094 24.851562 81.921875 24.75 82.019531 24.699219 C 84.613281 23.5 90.648438 20.800781 94.835938 20.800781 C 96.085938 20.800781 97.179688 21 97.929688 21.601562 C 98.527344 22.101562 98.726562 22.351562 98.726562 22.5 C 98.726562 22.601562 98.628906 22.601562 98.476562 22.601562 C 98.078125 22.601562 97.429688 22.449219 97.132812 22.351562 C 96.832031 22.300781 96.484375 22.25 96.085938 22.25 C 94.488281 22.25 92.246094 22.851562 90.648438 23.351562 C 90.996094 23.648438 91.246094 24.050781 91.445312 24.5 C 91.546875 24.800781 91.597656 25.101562 91.597656 25.398438 C 91.597656 29.351562 83.417969 34.949219 80.175781 34.949219 C 76.136719 34.949219 74.089844 30.75 74.089844 26.800781 C 74.089844 25.449219 74.289062 24.148438 74.738281 23.050781 C 76.136719 19.800781 79.425781 16.648438 85.5625 15.050781 C 83.21875 12.601562 82.320312 10.398438 82.320312 8.601562 C 82.320312 5.199219 85.660156 3.199219 88.703125 3.199219 C 91.296875 3.199219 93.640625 4.601562 93.640625 7.699219 C 93.640625 8.5 93.441406 9.398438 93.09375 10.449219 C 93.691406 10.25 94.339844 10.050781 95.035156 9.898438 C 95.035156 9.898438 95.085938 9.898438 95.136719 9.898438 C 95.734375 9.898438 96.582031 10.75 96.582031 11.148438 C 96.582031 11.300781 96.484375 11.398438 96.332031 11.398438 C 93.390625 12 90.996094 13.898438 90.996094 13.898438 C 90.949219 13.949219 90.847656 14 90.746094 14 C 90.199219 14 89.300781 13.199219 89.300781 12.75 C 89.300781 12.648438 89.351562 12.601562 89.402344 12.5 C 90.597656 11.601562 91.894531 8.800781 91.894531 6.75 C 91.894531 6.101562 91.796875 5.550781 91.496094 5.101562 Z M 108.914062 18.148438 C 108.964844 18.148438 108.964844 18.148438 109.015625 18.148438 C 109.613281 18.148438 110.460938 18.949219 110.460938 19.398438 C 110.460938 19.5 110.363281 19.601562 110.210938 19.648438 C 109.761719 19.699219 109.3125 19.75 108.914062 19.75 C 108.117188 19.75 107.367188 19.550781 106.722656 19.050781 C 106.171875 18.601562 105.921875 18.101562 105.921875 17.5 C 105.921875 17.398438 105.921875 17.300781 105.921875 17.199219 C 106.519531 14 114.351562 8.101562 118.738281 8.101562 C 119.238281 8.101562 119.6875 8.199219 120.085938 8.351562 C 120.636719 8.550781 121.132812 8.949219 121.582031 9.351562 C 122.628906 10.5 123.078125 11.949219 123.078125 13.550781 C 123.078125 16.148438 121.933594 19.199219 120.484375 22.199219 C 122.230469 19.949219 124.875 16.949219 127.816406 16.949219 C 128.664062 16.949219 129.5625 17.199219 130.511719 17.851562 C 131.957031 18.851562 133.203125 20.648438 134.199219 23.449219 C 138.140625 21.398438 145.074219 2.800781 149.011719 0.5 C 149.261719 0.351562 149.460938 0.300781 149.660156 0.300781 C 150.210938 0.300781 150.660156 0.648438 151.058594 1.398438 C 151.207031 1.601562 151.257812 1.898438 151.257812 2.351562 C 151.257812 5.601562 148.214844 14.75 147.367188 17.5 C 145.570312 23.5 143.226562 30.398438 142.179688 36.5 C 142.128906 36.800781 141.882812 38.601562 141.882812 39.449219 C 141.882812 39.699219 141.929688 39.851562 141.980469 39.898438 C 142.328125 40.351562 142.328125 40.699219 141.980469 40.75 C 141.929688 40.75 141.882812 40.75 141.832031 40.75 C 140.734375 40.75 140.183594 39 140.183594 38.050781 C 140.183594 34.898438 142.230469 27.800781 143.578125 23.300781 C 145.523438 16.800781 148.265625 9.199219 149.460938 2.949219 C 145.96875 7.199219 138.6875 23.851562 135.449219 25 C 135.199219 25.050781 134.949219 25.101562 134.699219 25.101562 C 133.800781 25.101562 133.101562 24.449219 132.605469 23 C 131.808594 20.699219 130.957031 19.351562 130.160156 18.800781 C 129.761719 18.550781 129.3125 18.398438 128.863281 18.398438 C 126.570312 18.398438 123.777344 21.5 122.679688 22.851562 C 118.441406 28.050781 114.898438 35.949219 114.898438 36.050781 C 114.898438 36.050781 114.699219 36.050781 114.449219 36.050781 C 113.753906 36.050781 112.457031 35.851562 112.457031 34.25 C 112.457031 34 112.457031 33.699219 112.554688 33.351562 C 113.554688 28.800781 121.53125 18.648438 121.53125 12.648438 C 121.53125 11.5 121.234375 10.5 120.535156 9.75 C 120.285156 9.550781 119.988281 9.5 119.636719 9.5 C 116.296875 9.5 108.265625 15.5 107.667969 18.25 C 108.015625 18.25 108.417969 18.25 108.914062 18.148438 Z M 157.984375 19.898438 C 157.832031 20.300781 156.984375 19.851562 156.6875 19.550781 C 154.640625 20.148438 151.898438 22.25 151.898438 24.300781 C 151.898438 24.5 151.949219 24.699219 152 24.851562 C 154.144531 24.648438 158.382812 19.949219 158.382812 19.949219 C 158.480469 19.800781 158.632812 19.75 158.78125 19.75 C 159.378906 19.75 160.128906 20.699219 160.128906 21.050781 C 160.128906 21.101562 160.078125 21.148438 160.078125 21.148438 C 159.976562 21.851562 159.929688 22.449219 159.929688 23 C 159.929688 23.550781 159.976562 24 160.078125 24.351562 C 160.128906 24.550781 160.328125 24.648438 160.625 24.648438 C 162.320312 24.648438 167.210938 21.550781 167.90625 21.101562 C 167.957031 21.050781 168.058594 21.050781 168.105469 21.050781 C 168.65625 21.050781 169.453125 21.851562 169.453125 22.300781 C 169.453125 22.398438 169.402344 22.449219 169.355469 22.5 C 167.210938 23.851562 164.066406 26.101562 161.671875 26.101562 C 161.425781 26.101562 161.175781 26.101562 160.925781 26.050781 C 159.429688 25.648438 158.480469 24.648438 158.230469 23.050781 C 156.6875 24.550781 154.390625 26.398438 152.894531 26.398438 C 152.796875 26.398438 152.746094 26.398438 152.648438 26.351562 C 151.597656 26.25 150.601562 25.351562 150.300781 24.199219 C 150.203125 23.949219 150.203125 23.648438 150.203125 23.398438 C 150.203125 20.898438 153.246094 18.648438 155.339844 18.050781 C 155.589844 18 155.839844 17.949219 156.085938 17.949219 C 156.734375 17.949219 157.285156 18.199219 157.734375 18.75 C 158.03125 19.101562 158.132812 19.5 157.984375 19.898438 Z M 179.972656 21.199219 C 180.421875 20.75 181.765625 22.199219 181.316406 22.601562 C 179.222656 24.648438 172.242188 33.449219 169.847656 32.648438 C 169.347656 32.449219 168.851562 32.050781 168.550781 31.601562 C 167.355469 29.800781 171.042969 24.148438 172.089844 22.050781 C 170.496094 22.550781 168.800781 22.75 167.453125 21.851562 C 165.058594 20.199219 166.554688 16.601562 168.402344 16.050781 C 169.5 15.75 170.792969 16.851562 170.996094 17.898438 C 171.144531 18.5 170.996094 19.449219 170.394531 20.648438 C 170.996094 20.5 172.191406 19.949219 172.691406 19.949219 C 173.488281 20 173.988281 20.449219 174.285156 21.199219 C 174.785156 22.550781 170.347656 28.851562 169.945312 31.148438 C 172.339844 30 177.675781 23.5 179.972656 21.199219 Z M 167.902344 20.898438 C 168.75 19.550781 169.148438 18.550781 169.25 17.851562 C 168.949219 18.101562 168.601562 18.601562 168.300781 19.25 C 168.25 19.300781 167.753906 20.75 167.902344 20.898438 Z M 187.460938 1.648438 C 187.507812 1.550781 187.609375 1.5 187.757812 1.5 C 188.308594 1.5 189.355469 2.351562 189.203125 2.851562 C 189.15625 2.898438 183.070312 17.851562 180.527344 25.648438 C 181.921875 23.601562 185.5625 17.648438 187.210938 16.851562 C 187.410156 16.75 187.558594 16.699219 187.707031 16.699219 C 188.554688 16.699219 189.355469 17.601562 189.355469 18 C 189.355469 18.101562 189.304688 18.148438 189.253906 18.148438 C 189.003906 18.25 189.003906 17.898438 188.058594 18.75 C 187.160156 19.601562 185.964844 21.300781 184.765625 23.101562 C 184.765625 23.199219 184.714844 23.351562 184.714844 23.550781 C 184.714844 24.25 184.816406 25.449219 185.363281 25.800781 C 185.5625 25.949219 185.863281 26.050781 186.164062 26.050781 C 188.507812 26.050781 193.195312 22.300781 194.292969 21.050781 C 194.339844 21 194.441406 20.949219 194.492188 20.949219 C 194.941406 20.949219 195.738281 21.851562 195.738281 22.398438 C 195.738281 22.5 195.738281 22.550781 195.6875 22.601562 C 193.941406 24.550781 190.351562 27.449219 187.308594 27.449219 C 186.460938 27.449219 185.714844 27.25 185.015625 26.75 C 184.316406 26.25 183.820312 25.601562 183.519531 24.949219 C 182.023438 27.199219 179.929688 30.601562 179.128906 30.601562 C 178.132812 30.601562 177.632812 30.050781 177.632812 29.148438 C 177.632812 26.050781 187.460938 1.75 187.460938 1.648438 Z M 187.460938 1.648438 "/>
</g>
</svg>
